#usda 1.0
(
    customLayerData = {
        string creator = "MuJoCo USD Converter v0.5.0"
    }
    defaultPrim = "microduck"
    kilogramsPerUnit = 1
    metersPerUnit = 1
    upAxis = "Z"
)

def Xform "microduck" (
    prepend apiSchemas = ["GeomModelAPI"]
    assetInfo = {
        string name = "microduck"
    }
    kind = "component"
    prepend payload = @./Payload/Contents.usda@
)
{
    float3[] extentsHint = [(-0.051777113, -0.0705, 0.013473379), (0.09229002, 0.0705, 0.2774494), (3.4028235e38, 3.4028235e38, 3.4028235e38), (-3.4028235e38, -3.4028235e38, -3.4028235e38), (3.4028235e38, 3.4028235e38, 3.4028235e38), (-3.4028235e38, -3.4028235e38, -3.4028235e38), (-0.051777113, -0.07035409, 0.009685399), (0.090881735, 0.07035395, 0.2561146)]
}

def PhysicsScene "PhysicsScene" (
    prepend payload = @./Payload/Contents.usda@</PhysicsScene>
)
{
}

